<?xml version="1.0" encoding="UTF-8"?>
<svg version="1.1" xmlns="http://www.w3.org/2000/svg" width="851" height="206">
<path d="M0 0 C280.83 0 561.66 0 851 0 C851 67.98 851 135.96 851 206 C570.17 206 289.34 206 0 206 C0 138.02 0 70.04 0 0 Z " fill="#000000" transform="translate(0,0)"/>
<path d="M0 0 C26.4 0 52.8 0 80 0 C76.62498232 11.25005894 76.62498232 11.25005894 75.04907227 15.58666992 C74.51446381 17.06414703 74.51446381 17.06414703 73.96905518 18.57147217 C73.58868103 19.61394104 73.20830688 20.65640991 72.81640625 21.73046875 C72.40872009 22.85471252 72.00103394 23.9789563 71.58099365 25.13726807 C70.47438608 28.18714584 69.36533369 31.23612012 68.25510025 34.28467941 C67.08439832 37.50101631 65.91677082 40.71846909 64.7487793 43.93579102 C62.80628027 49.2853073 60.86182164 54.63410763 58.91601562 59.98242188 C56.56036837 66.45740161 54.20833941 72.93368715 51.85792542 79.41056824 C50.09675232 84.26360924 48.33463323 89.11630634 46.57223511 93.96890259 C45.74942692 96.23445059 44.92676814 98.50005286 44.10427856 100.76571655 C43.71545502 101.83649445 43.32663147 102.90727234 42.92602539 104.01049805 C42.59035049 104.93509323 42.2546756 105.85968842 41.90882874 106.81230164 C36.66029034 121.22972535 31.32926382 135.61098769 26 150 C-0.4 150 -26.8 150 -54 150 C-52.26906174 144.23020581 -50.57706675 138.61466137 -48.5546875 132.96875 C-48.11769531 131.74671875 -47.68070312 130.5246875 -47.23046875 129.265625 C-47.00794434 128.64751953 -46.78541992 128.02941406 -46.55615234 127.39257812 C-45.86647685 125.47631846 -45.1810116 123.55858971 -44.49609375 121.640625 C-41.14074248 112.28148496 -41.14074248 112.28148496 -40 110 C-56.5 110 -73 110 -90 110 C-90 86.9 -90 63.8 -90 40 C-73.83 40 -57.66 40 -41 40 C-41 42.97 -41 45.94 -41 49 C-53.87 49 -66.74 49 -80 49 C-80 55.93 -80 62.86 -80 70 C-67.46 70 -54.92 70 -42 70 C-42 72.97 -42 75.94 -42 79 C-54.21 79 -66.42 79 -79 79 C-79 86.26 -79 93.52 -79 101 C-66.13 101 -53.26 101 -40 101 C-39.67 102.65 -39.34 104.3 -39 106 C-38.4076628 104.39222761 -37.81532621 102.78445499 -37.22299194 101.17668152 C-36.6829826 99.7109493 -36.14296351 98.24522068 -35.60293579 96.77949524 C-34.06123824 92.59502272 -32.51972398 88.41048281 -30.97851562 84.22583008 C-28.02417007 76.20480142 -25.06895675 68.18410206 -22.10696411 60.16589355 C-20.86760247 56.81070809 -19.62911795 53.45519914 -18.39068604 50.09967041 C-17.80693267 48.51874006 -17.22276 46.93796446 -16.63812256 45.35736084 C-13.43314845 36.69200884 -10.26268169 28.01813838 -7.24182129 19.2865448 C-4.97653345 12.79036215 -2.47505652 6.43514694 0 0 Z " fill="#E80710" transform="translate(400,36)"/>
<path d="M0 0 C39.73684211 0 39.73684211 0 47.375 5.375 C51.69456998 9.69456998 53.37883463 12.85472302 53.57006836 19.0793457 C53.52787075 31.530364 53.52787075 31.530364 48.80078125 36.55078125 C46.00358334 38.80188846 43.24047573 40.44457165 40 42 C41.38071919 45.82949315 43.156206 48.92697384 45.4765625 52.265625 C46.146875 53.23757812 46.8171875 54.20953125 47.5078125 55.2109375 C48.20648437 56.21382812 48.90515625 57.21671875 49.625 58.25 C51.01500224 60.25383534 52.40313315 62.25897054 53.7890625 64.265625 C54.40475098 65.15024414 55.02043945 66.03486328 55.65478516 66.94628906 C57 69 57 69 57 70 C52.22141497 71.40776646 48.73778123 71.65995255 44 70 C39.0705107 64.92295247 35.69849902 58.46204045 32.32763672 52.29003906 C31.03963693 49.95507179 31.03963693 49.95507179 29.33251953 47.82714844 C28 46 28 46 28 44 C22.06 44 16.12 44 10 44 C10 52.58 10 61.16 10 70 C6.7 70 3.4 70 0 70 C0 46.9 0 23.8 0 0 Z " fill="#F7F7F7" transform="translate(531,76)"/>
<path d="M0 0 C11 0 11 0 13.5859375 2.32421875 C14.17632812 3.43410156 14.76671875 4.54398437 15.375 5.6875 C16.09254268 6.9590154 16.81138118 8.22980009 17.53125 9.5 C17.91410156 10.20769531 18.29695313 10.91539063 18.69140625 11.64453125 C21.25402571 16.25724628 24.09141693 20.70609314 26.875 25.1875 C27.71490479 26.56844849 27.71490479 26.56844849 28.57177734 27.97729492 C29.1023877 28.84459229 29.63299805 29.71188965 30.1796875 30.60546875 C30.65132324 31.38043701 31.12295898 32.15540527 31.60888672 32.95385742 C32.92247648 34.88597321 34.28990764 36.41701337 36 38 C37.39651153 35.77125587 38.7923284 33.5420829 40.1875 31.3125 C40.62441162 30.61439209 41.06132324 29.91628418 41.51147461 29.19702148 C44.19454492 24.90457602 46.86486713 20.60454221 49.5234375 16.296875 C50.1110083 15.34514404 50.6985791 14.39341309 51.30395508 13.4128418 C52.46903944 11.52441199 53.63295454 9.63526026 54.7956543 7.74536133 C55.32843994 6.88193115 55.86122559 6.01850098 56.41015625 5.12890625 C56.88590088 4.35619385 57.36164551 3.58348145 57.85180664 2.78735352 C59 1 59 1 60 0 C63.63 0 67.26 0 71 0 C71 23.1 71 46.2 71 70 C67.7 70 64.4 70 61 70 C60.67 52.84 60.34 35.68 60 18 C54.71921959 26.71853624 54.71921959 26.71853624 49.44116211 35.4387207 C45.0479236 42.68327674 40.58760523 49.87609788 36 57 C32.61694192 53.89886343 30.38135852 50.62713733 28.03125 46.6953125 C27.66906372 46.09371307 27.30687744 45.49211365 26.93371582 44.87228394 C25.78363312 42.95976493 24.64151238 41.04264426 23.5 39.125 C22.35697445 37.21544654 21.21228536 35.30690847 20.06628418 33.3991394 C19.02490812 31.66388906 17.98791378 29.92601132 16.95117188 28.18798828 C15.04630929 25.075664 13.0240906 22.0361359 11 19 C10.67 35.83 10.34 52.66 10 70 C6.7 70 3.4 70 0 70 C0 46.9 0 23.8 0 0 Z " fill="#F5F5F5" transform="translate(59,76)"/>
<path d="M0 0 C6.83198069 3.76477014 10.27526844 8.59862384 13.07421875 15.73046875 C15.25541068 23.47322797 15.28628135 32.23422974 11.7890625 39.55859375 C7.98767582 45.97210647 3.23260869 50.8054554 -4.0234375 52.93359375 C-11.45268708 53.86983524 -18.27673196 54.10711142 -24.41796875 49.40625 C-30.60479082 43.73123316 -34.38137778 37.40536934 -35.375 28.9375 C-35.6712228 18.36773206 -33.29887344 11.72539665 -26.25390625 3.87890625 C-18.96860564 -2.47499866 -8.98207591 -3.16809654 0 0 Z " fill="#020202" transform="translate(186.0234375,85.06640625)"/>
<path d="M0 0 C3.63 0 7.26 0 11 0 C14.26121176 6.24880712 16.91064218 12.6110727 19.4375 19.1875 C19.83654541 20.21633301 20.23559082 21.24516602 20.64672852 22.30517578 C22.59100739 27.32310457 24.51717387 32.34786051 26.4375 37.375 C28.10106186 41.69814816 29.79500215 46.00708149 31.5234375 50.3046875 C31.98049072 51.44373535 32.43754395 52.5827832 32.90844727 53.75634766 C33.83691004 56.06660714 34.76705817 58.37619009 35.69897461 60.68505859 C36.1244458 61.74289551 36.54991699 62.80073242 36.98828125 63.890625 C37.37540283 64.85000977 37.76252441 65.80939453 38.16137695 66.79785156 C39 69 39 69 39 70 C35.37 70 31.74 70 28 70 C27.5875 69.030625 27.175 68.06125 26.75 67.0625 C25.83189165 64.90560431 24.89189946 62.76558843 23.91015625 60.63671875 C23.36681641 59.45529297 23.36681641 59.45529297 22.8125 58.25 C22.46832031 57.51265625 22.12414062 56.7753125 21.76953125 56.015625 C21 54 21 54 21 51 C10.77 51 0.54 51 -10 51 C-10.66 53.97 -11.32 56.94 -12 60 C-13.2890625 63.06640625 -13.2890625 63.06640625 -14.625 65.5625 C-15.07101562 66.40941406 -15.51703125 67.25632812 -15.9765625 68.12890625 C-16.48316406 69.05509766 -16.48316406 69.05509766 -17 70 C-20.3 70 -23.6 70 -27 70 C-24.83036886 62.35998789 -22.16813984 55.04655532 -19.21875 47.67578125 C-18.76399292 46.53014206 -18.30923584 45.38450287 -17.84069824 44.20414734 C-16.39770118 40.57203211 -14.94882913 36.94229218 -13.5 33.3125 C-12.52698124 30.86407633 -11.55432158 28.41550991 -10.58203125 25.96679688 C-9.64875577 23.61966509 -8.71517255 21.27265564 -7.78125 18.92578125 C-7.34679565 17.83397049 -6.91234131 16.74215973 -6.46472168 15.61726379 C-4.37446252 10.38153994 -2.25340754 5.16772302 0 0 Z " fill="#F3F3F3" transform="translate(678,76)"/>
<path d="M0 0 C7.37431388 5.93904474 13.14339858 12.70759708 14.27783203 22.36523438 C15.2604151 35.57469699 14.20568066 45.85737111 5.625 56.375 C-1.92313272 64.38258427 -9.78696523 67.87255592 -20.75 68.25 C-31.01085121 68.09593317 -38.4986612 64.42649065 -45.72265625 57.30078125 C-49.2245631 53.47191504 -51.20276476 49.85253514 -53 45 C-53.34804687 44.28457031 -53.69609375 43.56914063 -54.0546875 42.83203125 C-56.92949152 34.21949854 -56.22701745 22.209585 -52.265625 14.10546875 C-46.33636198 4.24166391 -39.17607179 -2.22541703 -28.0234375 -5.59765625 C-18.37075521 -7.517012 -8.17170692 -5.40684368 0 0 Z M-36 9 C-36.84304687 9.77923828 -36.84304687 9.77923828 -37.703125 10.57421875 C-43.29238674 16.39410536 -45.1061179 22.87266616 -45.5 30.8125 C-45.26734503 38.41256219 -43.11352989 45.46722252 -38.02734375 51.23828125 C-31.37972704 57.23977447 -26.59999773 58.52449268 -17.62109375 58.375 C-11.56825477 57.74816878 -6.68229945 55.72765234 -2.3828125 51.35546875 C-1.06788164 49.63205345 -0.02477352 47.90791167 1 46 C1.598125 45.01 2.19625 44.02 2.8125 43 C5.74971216 35.52192536 5.04648003 25.78786456 2.3125 18.375 C0.45549829 14.46041452 -1.57230607 11.72657471 -5 9 C-5.77730469 8.30390625 -5.77730469 8.30390625 -6.5703125 7.59375 C-12.06379744 3.31311239 -17.64316713 3.27003196 -24.43359375 3.51953125 C-29.38154835 4.18612316 -32.39062195 5.60546589 -36 9 Z " fill="#F4F4F4" transform="translate(196,80)"/>
<path d="M0 0 C3.69343637 3.00558992 5.69322295 5.90350163 7.625 10.25 C7.625 11.57 7.625 12.89 7.625 14.25 C3.995 14.25 0.365 14.25 -3.375 14.25 C-4.035 12.6 -4.695 10.95 -5.375 9.25 C-11.1563004 4.62495968 -16.08384705 3.74716187 -23.375 4.25 C-29.20850355 6.12521446 -29.20850355 6.12521446 -33.375 10.25 C-34.15914321 15.76275027 -34.15914321 15.76275027 -31.67578125 20.41015625 C-29.08858082 22.47903809 -27.34833867 23.06571581 -24.125 23.75 C-22.55105469 24.10771484 -22.55105469 24.10771484 -20.9453125 24.47265625 C-19.76710938 24.72917969 -18.58890625 24.98570313 -17.375 25.25 C-14.57823765 25.8753253 -11.78859151 26.52680641 -9 27.1875 C-8.33452148 27.33316406 -7.66904297 27.47882813 -6.98339844 27.62890625 C-1.00905951 29.04522367 3.13827311 31.41115359 7 36.1875 C9.70737268 41.51047002 9.5732272 47.47508247 8.625 53.25 C7.09389055 56.47499465 5.17365775 58.77486123 2.625 61.25 C1.903125 62.013125 1.18125 62.77625 0.4375 63.5625 C-7.79644862 68.50286917 -17.93533691 69.72997729 -27.23046875 67.59375 C-35.45281461 64.96259932 -41.82890002 60.70544805 -45.875 52.9375 C-47.375 49.25 -47.375 49.25 -47.375 47.25 C-43.6489301 46.90309004 -40.08893806 46.72174756 -36.375 47.25 C-34.0625 50 -34.0625 50 -32.375 53.25 C-27.81978323 57.06081103 -24.15559943 57.83144998 -18.375 57.625 C-17.34632813 57.62306641 -17.34632813 57.62306641 -16.296875 57.62109375 C-11.99706014 57.54724197 -8.30192654 57.03387821 -4.375 55.25 C-2.92761427 50.90784282 -2.72738752 46.78328734 -3.375 42.25 C-7.81525552 36.8678721 -15.04629604 36.2243036 -21.63012695 35.26245117 C-30.50686125 33.94072242 -37.0754773 32.48015731 -42.8125 25.125 C-45.53151064 20.12202043 -46.03715993 15.84571776 -45.375 10.25 C-43.11433673 3.73928977 -38.17656497 -0.14910573 -32.3125 -3.5 C-21.7652615 -7.9881866 -9.38876387 -6.50258831 0 0 Z " fill="#F3F3F3" transform="translate(826.375,79.75)"/>
<path d="M0 0 C16.17 0 32.34 0 49 0 C49 2.97 49 5.94 49 9 C36.13 9 23.26 9 10 9 C10 15.93 10 22.86 10 30 C22.54 30 35.08 30 48 30 C48 32.97 48 35.94 48 39 C35.79 39 23.58 39 11 39 C11 46.26 11 53.52 11 61 C23.87 61 36.74 61 50 61 C50 63.97 50 66.94 50 70 C33.5 70 17 70 0 70 C0 46.9 0 23.8 0 0 Z " fill="#F5F5F5" transform="translate(596,76)"/>
<path d="M0 0 C16.17 0 32.34 0 49 0 C49 2.97 49 5.94 49 9 C36.13 9 23.26 9 10 9 C10 15.93 10 22.86 10 30 C22.54 30 35.08 30 48 30 C48 32.97 48 35.94 48 39 C35.79 39 23.58 39 11 39 C11 46.26 11 53.52 11 61 C23.87 61 36.74 61 50 61 C50 63.97 50 66.94 50 70 C33.5 70 17 70 0 70 C0 46.9 0 23.8 0 0 Z " fill="#F5F5F5" transform="translate(310,76)"/>
<path d="M0 0 C3.3 0 6.6 0 10 0 C10 9.57 10 19.14 10 29 C10.66 29 11.32 29 12 29 C12.33 28.01 12.66 27.02 13 26 C14.54003906 24.46582031 14.54003906 24.46582031 16.515625 22.828125 C21.86809865 18.28735565 26.91633861 13.45060251 31.99609375 8.609375 C32.71410156 7.92875 33.43210937 7.248125 34.171875 6.546875 C34.8122168 5.93682617 35.45255859 5.32677734 36.11230469 4.69824219 C40.52802443 0.72569349 42.66388454 -0.37008346 48.75 -0.1875 C49.92046875 -0.16042969 51.0909375 -0.13335937 52.296875 -0.10546875 C53.18890625 -0.07066406 54.0809375 -0.03585938 55 0 C53.8717446 1.1282554 52.74312686 2.25614956 51.61328125 3.3828125 C50.4597124 4.53917449 49.31190691 5.70129744 48.16796875 6.8671875 C44.38337048 10.70403861 40.51584207 14.3475795 36.4296875 17.859375 C30.84213937 22.7821666 25.44185305 27.9173704 20 33 C21.50132301 36.65075814 23.58895335 38.63276273 26.5625 41.1875 C30.03806506 44.23299514 33.38559114 47.32925359 36.625 50.625 C39.97693574 54.0241461 43.45151214 57.18674136 47.0703125 60.296875 C50.18527638 63.04611438 53.21270987 65.9165603 56 69 C56 69.33 56 69.66 56 70 C51.26543014 70.98484889 46.64910768 71.54194851 42 70 C36.78034471 66.46348982 32.71973758 61.47967978 28.59033203 56.76855469 C26.71747323 54.68581149 24.71284506 52.85515557 22.5625 51.0625 C18.51758879 47.58529563 14.77175403 43.77175403 11 40 C10.67 49.9 10.34 59.8 10 70 C6.7 70 3.4 70 0 70 C0 46.9 0 23.8 0 0 Z " fill="#F6F6F6" transform="translate(724,76)"/>
<path d="M0 0 C3.63 0 7.26 0 11 0 C13.70768579 5.72779686 15.93209047 11.51945989 18 17.5 C20.27136543 24.08988828 20.27136543 24.08988828 23 30.5 C25.01346846 34.81578893 26.59694518 39.26546659 28.1875 43.75 C28.44982422 44.48412109 28.71214844 45.21824219 28.98242188 45.97460938 C30.26262038 49.62802182 31.37350459 53.16554618 32 57 C32.66 57 33.32 57 34 57 C34.07726318 56.08468506 34.15452637 55.16937012 34.23413086 54.22631836 C35.03574823 48.67270834 37.23416719 43.58305901 39.25390625 38.37890625 C39.67421616 37.27900864 40.09452606 36.17911102 40.52757263 35.04588318 C41.86573624 31.54876568 43.21395911 28.05562723 44.5625 24.5625 C45.47397466 22.18580271 46.38478943 19.80885223 47.29492188 17.43164062 C49.52231382 11.61813289 51.75873274 5.80817176 54 0 C57.63 0 61.26 0 65 0 C63.17781393 6.58011636 60.91868165 12.86649281 58.33569336 19.17895508 C56.57676462 23.49691659 54.96881668 27.84444539 53.4375 32.25 C51.6414489 37.36845873 49.56775543 42.23353801 47.2578125 47.13671875 C45.30764921 51.57606563 43.77015555 56.14957577 42.2109375 60.73828125 C41.01381975 63.96277582 39.59395077 66.95490907 38 70 C34.37 70 30.74 70 27 70 C26.62488281 68.98421875 26.24976563 67.9684375 25.86328125 66.921875 C23.11921975 59.52707591 20.29517295 52.19257231 17.21484375 44.9296875 C15.91203575 41.78786756 14.70160394 38.61931729 13.5 35.4375 C11.95078496 31.35806227 10.29291805 27.38664667 8.4375 23.4375 C5.80334805 17.77158826 3.88431197 11.94915962 2 6 C1.33612923 3.9990702 0.67020857 1.99881588 0 0 Z " fill="#F2F2F2" transform="translate(212,76)"/>
<path d="M0 0 C15.51 0 31.02 0 47 0 C47 2.97 47 5.94 47 9 C34.79 9 22.58 9 10 9 C10 16.26 10 23.52 10 31 C21.88 31 33.76 31 46 31 C46 33.97 46 36.94 46 40 C34.12 40 22.24 40 10 40 C10 49.9 10 59.8 10 70 C6.7 70 3.4 70 0 70 C0 46.9 0 23.8 0 0 Z " fill="#F8F8F8" transform="translate(472,76)"/>
<path d="M0 0 C3.465 -0.061875 6.93 -0.12375 10.5 -0.1875 C12.11358398 -0.22846802 12.11358398 -0.22846802 13.75976562 -0.27026367 C20.55389719 -0.32855281 26.75631897 -0.03814084 31.97265625 4.84765625 C33.98343204 9.06034622 33.58032359 13.45863053 33 18 C31.10444688 21.95593695 28.98325031 23.19140186 25 24.61328125 C19.76524303 26.29047226 14.8876142 26.34220055 9.4375 26.1875 C4.7659375 26.0946875 4.7659375 26.0946875 0 26 C0 17.42 0 8.84 0 0 Z " fill="#010101" transform="translate(541,85)"/>
<path d="M0 0 C3.3 0 6.6 0 10 0 C10 23.1 10 46.2 10 70 C6.7 70 3.4 70 0 70 C0 46.9 0 23.8 0 0 Z " fill="#F6F6F6" transform="translate(285,76)"/>
<path d="M0 0 C2.3417201 2.86430736 3.68707775 5.44206506 4.875 8.9375 C6.79678155 14.46448414 8.89834423 19.90514307 11.046875 25.34765625 C12 28 12 28 12 30 C4.74 30 -2.52 30 -10 30 C-10 25.69715426 -9.94930005 24.27276842 -8.375 20.625 C-8.01664063 19.77421875 -7.65828125 18.9234375 -7.2890625 18.046875 C-6.65097656 16.53867188 -6.65097656 16.53867188 -6 15 C-4.9060081 12.2959046 -3.82838085 9.58535187 -2.75 6.875 C-2.22422862 5.55978775 -1.69820845 4.24467492 -1.171875 2.9296875 C-0.78515625 1.96289062 -0.3984375 0.99609375 0 0 Z " fill="#090909" transform="translate(683,88)"/>
<path d="M0 0 C0.92900148 3.43358947 1.23296968 6.42779828 1 10 C0.34 10.66 -0.32 11.32 -1 12 C-1.88778692 13.96488831 -1.88778692 13.96488831 -2.625 16.125 C-2.88539063 16.84945312 -3.14578125 17.57390625 -3.4140625 18.3203125 C-3.60742188 18.87460938 -3.80078125 19.42890625 -4 20 C-4.66 20 -5.32 20 -6 20 C-5.896875 20.94875 -5.79375 21.8975 -5.6875 22.875 C-5.65068848 27.42122273 -7.70178964 30.64080629 -9.8203125 34.5546875 C-11.37599879 37.77938823 -11.76856351 40.45130715 -12 44 C-12.66 44 -13.32 44 -14 44 C-13.93039062 45.2890625 -13.86078125 46.578125 -13.7890625 47.90625 C-13.79117722 53.30301363 -15.31718677 57.56778099 -17.375 62.5 C-17.69210937 63.30953125 -18.00921875 64.1190625 -18.3359375 64.953125 C-20.71316964 70.85658482 -20.71316964 70.85658482 -23 72 C-24.6310013 75.39248271 -25.31883693 78.53938968 -25.8125 82.25 C-26.75283124 87.75765443 -28.52538109 92.56651 -32 97 C-33.485 97.495 -33.485 97.495 -35 98 C-32.67908407 89.82863542 -29.8751037 81.85431689 -26.9921875 73.8671875 C-26.50218776 72.50414475 -26.0123746 71.14103492 -25.5227356 69.77786255 C-24.49727504 66.92471661 -23.47003342 64.07222063 -22.44140625 61.22021484 C-21.15115917 57.64260666 -19.86461922 54.06368007 -18.57931137 50.48429489 C-12.51711484 33.60595539 -6.36005912 16.76892267 0 0 Z " fill="#340001" transform="translate(471,60)"/>
<path d="M0 0 C1.21440168 3.64320503 0.67522391 4.59704808 -0.62719727 8.13549805 C-1.00832169 9.18476974 -1.38944611 10.23404144 -1.78211975 11.31510925 C-2.2059343 12.45249039 -2.62974884 13.58987152 -3.06640625 14.76171875 C-3.49751205 15.9403096 -3.92861786 17.11890045 -4.37278748 18.33320618 C-5.52621102 21.48108179 -6.68759767 24.62578486 -7.85284424 27.76928711 C-9.0135974 30.90682477 -10.16339246 34.04834651 -11.31445312 37.18945312 C-15.82418814 49.47905296 -20.37639616 61.75276226 -25 74 C-25.33 74 -25.66 74 -26 74 C-26.43044617 66.75511262 -25.46850335 61.12255011 -22.875 54.375 C-22.55805176 53.51108643 -22.24110352 52.64717285 -21.91455078 51.75708008 C-20.95940105 49.16490586 -19.98277575 46.58180853 -19 44 C-18.45770847 42.55882872 -17.91599976 41.11743794 -17.375 39.67578125 C-16.63119805 37.69541751 -15.88578916 35.71581579 -15.13256836 33.73901367 C-13.43511863 29.26072018 -11.91004574 24.74405663 -10.4375 20.1875 C-4.85251697 3.23501131 -4.85251697 3.23501131 0 0 Z " fill="#2D0101" transform="translate(386,71)"/>
<path d="M0 0 C2.47743275 8.40662013 -3.52890259 18.46531216 -6.8359375 26.14453125 C-8.5476276 30.34334152 -9.76410323 34.6434639 -11 39 C-11.65629516 41.00342734 -12.31760646 43.00531118 -13 45 C-13.66 45 -14.32 45 -15 45 C-14.938125 46.051875 -14.938125 46.051875 -14.875 47.125 C-15.01668332 50.38371628 -15.86734686 52.9559947 -17 56 C-17.66 56 -18.32 56 -19 56 C-19 57.65 -19 59.3 -19 61 C-20.65 64.96 -22.3 68.92 -24 73 C1.41 73 26.82 73 53 73 C53 71.35 53 69.7 53 68 C53.66 68 54.32 68 55 68 C55.66 64.37 56.32 60.74 57 57 C57.66 57 58.32 57 59 57 C59 55.35 59 53.7 59 52 C59.66 52 60.32 52 61 52 C60 58 60 58 54 74 C27.6 74 1.2 74 -26 74 C-24.03593927 67.45313091 -22.01909824 61.02692923 -19.70703125 54.609375 C-19.39952942 53.7495401 -19.09202759 52.8897052 -18.77520752 52.0038147 C-17.79016658 49.25162956 -16.80144162 46.50078563 -15.8125 43.75 C-15.13516707 41.86024908 -14.45800287 39.97043769 -13.78100586 38.08056641 C-9.22573382 25.37311508 -4.645447 12.67479789 0 0 Z " fill="#BD151C" transform="translate(372,112)"/>
<path d="M0 0 C26.4 0 52.8 0 80 0 C77 10 77 10 75 13 C74.77057202 8.18201244 75.38262276 5.85213172 77 1 C51.92 1 26.84 1 1 1 C0.34 4.3 -0.32 7.6 -1 11 C-1.93318256 13.36085043 -2.9304207 15.69773056 -4 18 C-5.03973668 20.58924062 -6.02080577 23.19983894 -7 25.8125 C-7.26417725 26.51391113 -7.52835449 27.21532227 -7.80053711 27.93798828 C-9.20757893 31.71824353 -10.48374258 35.48530897 -11.5625 39.375 C-13.0339933 44.58727749 -15.44053261 49.2452582 -18 54 C-19 52 -19 52 -18.33837891 49.58349609 C-17.97147949 48.57367676 -17.60458008 47.56385742 -17.2265625 46.5234375 C-16.81277344 45.37488281 -16.39898437 44.22632813 -15.97265625 43.04296875 C-15.52792969 41.83253906 -15.08320313 40.62210938 -14.625 39.375 C-14.21894531 38.24964844 -13.81289063 37.12429687 -13.39453125 35.96484375 C-9.03416976 23.93762309 -4.49203773 11.97876727 0 0 Z " fill="#BD161D" transform="translate(400,36)"/>
<path d="M0 0 C0.92900148 3.43358947 1.23296968 6.42779828 1 10 C0.34 10.66 -0.32 11.32 -1 12 C-1.88778692 13.96488831 -1.88778692 13.96488831 -2.625 16.125 C-2.88539063 16.84945312 -3.14578125 17.57390625 -3.4140625 18.3203125 C-3.60742188 18.87460938 -3.80078125 19.42890625 -4 20 C-4.66 20 -5.32 20 -6 20 C-5.896875 20.94875 -5.79375 21.8975 -5.6875 22.875 C-5.65068848 27.42122273 -7.70178964 30.64080629 -9.8203125 34.5546875 C-11.37599879 37.77938823 -11.76856351 40.45130715 -12 44 C-12.66 44 -13.32 44 -14 44 C-13.95101563 44.71671875 -13.90203125 45.4334375 -13.8515625 46.171875 C-14.02252552 49.42917051 -14.88129442 51.36619848 -16.375 54.25 C-16.81585938 55.12140625 -17.25671875 55.9928125 -17.7109375 56.890625 C-19 59 -19 59 -21 60 C-19.01790908 52.22174868 -16.5713015 44.7257507 -13.76953125 37.20703125 C-13.37424728 36.13498947 -12.97896332 35.06294769 -12.57170105 33.9584198 C-11.32297665 30.57482282 -10.06785633 27.19364129 -8.8125 23.8125 C-7.95855829 21.50211057 -7.10503866 19.19156508 -6.25195312 16.88085938 C-4.17284157 11.25209419 -2.08849056 5.62529148 0 0 Z " fill="#4A0001" transform="translate(471,60)"/>
<path d="M0 0 C1.21205531 3.63616593 0.66898648 4.58869753 -0.65234375 8.10546875 C-1.01650391 9.08837891 -1.38066406 10.07128906 -1.75585938 11.08398438 C-2.34077148 12.62022461 -2.34077148 12.62022461 -2.9375 14.1875 C-3.32357422 15.22326172 -3.70964844 16.25902344 -4.10742188 17.32617188 C-5.06342444 19.88731454 -6.02789257 22.44493599 -7 25 C-7.33 25 -7.66 25 -8 25 C-8.04241723 22.66705225 -8.04092937 20.33297433 -8 18 C-7.67 17.67 -7.34 17.34 -7 17 C-6.72891732 15.46190043 -6.48327579 13.91928576 -6.25 12.375 C-5.26732588 7.11391394 -3.38403349 4.0964616 0 0 Z " fill="#2B0001" transform="translate(375,101)"/>
<path d="M0 0 C1.19738828 3.59216484 0.42416351 4.61304845 -1.109375 7.91015625 C-2.10134538 10.23780604 -2.80406422 12.56792656 -3.5 15 C-4.70711146 19.16201971 -6.23794381 23.03537358 -8 27 C-9.02967098 29.6564571 -10.0150182 32.32647796 -11 35 C-11.33 35 -11.66 35 -12 35 C-12 33.35 -12 31.7 -12 30 C-11.34 30 -10.68 30 -10 30 C-10.061875 28.948125 -10.12375 27.89625 -10.1875 26.8125 C-9.98668017 22.7291634 -9.25426418 21.2946938 -7 18 C-5.13273911 14.05800479 -4.50847012 10.32199606 -4 6 C-3.34 6 -2.68 6 -2 6 C-1.855625 5.38125 -1.71125 4.7625 -1.5625 4.125 C-1 2 -1 2 0 0 Z " fill="#1A0101" transform="translate(469,74)"/>
<path d="M0 0 C0.92900148 3.43358947 1.23296968 6.42779828 1 10 C0.34 10.66 -0.32 11.32 -1 12 C-1.80083828 14.05031372 -2.45709019 16.12440501 -3.12109375 18.22265625 C-3.41113281 18.80917969 -3.70117188 19.39570312 -4 20 C-4.99 20.33 -5.98 20.66 -7 21 C-4.96192707 13.8821847 -2.59655258 6.93292719 0 0 Z " fill="#370101" transform="translate(471,60)"/>
<path d="M0 0 C1.4216868 4.26506039 -0.34613318 7.20037743 -1.9375 11.1875 C-2.22818359 11.93708984 -2.51886719 12.68667969 -2.81835938 13.45898438 C-3.53725036 15.30924477 -4.26754653 17.15506648 -5 19 C-5.33 19 -5.66 19 -6 19 C-6 15.7 -6 12.4 -6 9 C-5.01 9.33 -4.02 9.66 -3 10 C-2.87625 9.278125 -2.7525 8.55625 -2.625 7.8125 C-2.0095069 5.04278106 -1.11555626 2.6029646 0 0 Z " fill="#3F0000" transform="translate(366,126)"/>
<path d="M0 0 C0.33 1.32 0.66 2.64 1 4 C0.34 4 -0.32 4 -1 4 C-1 5.65 -1 7.3 -1 9 C-1.66 9 -2.32 9 -3 9 C-3.12375 9.639375 -3.2475 10.27875 -3.375 10.9375 C-3.58125 11.618125 -3.7875 12.29875 -4 13 C-4.99 13.495 -4.99 13.495 -6 14 C-4.45941767 8.98491285 -2.97068161 4.3852919 0 0 Z " fill="#120000" transform="translate(384,72)"/>
<path d="M0 0 C1.25955231 3.77865693 0.48087189 5.03411786 -0.9375 8.6875 C-1.31777344 9.68136719 -1.69804687 10.67523438 -2.08984375 11.69921875 C-2.39019531 12.45847656 -2.69054687 13.21773437 -3 14 C-3.33 14 -3.66 14 -4 14 C-4.45019307 9.19794054 -2.94434428 5.31181012 -1 1 C-0.67 0.67 -0.34 0.34 0 0 Z " fill="#4F0000" transform="translate(375,101)"/>
<path d="M0 0 C1.13643966 3.40931897 0.86747764 4.00335456 -0.4375 7.1875 C-0.86869141 8.26064453 -0.86869141 8.26064453 -1.30859375 9.35546875 C-1.53675781 9.89816406 -1.76492188 10.44085938 -2 11 C-2.33 11 -2.66 11 -3 11 C-3.36923077 4.6 -3.36923077 4.6 -1.5 1.5625 C-1.005 1.046875 -0.51 0.53125 0 0 Z " fill="#4B0000" transform="translate(370,115)"/>
<path d="M0 0 C0.95465783 2.16967689 1.14401212 3.56328793 0.3984375 5.82421875 C-0.35870385 7.5684743 -1.17609198 9.28627131 -2 11 C-2.33 11 -2.66 11 -3 11 C-3.39253254 6.55129785 -2.15305957 3.85756507 0 0 Z " fill="#200202" transform="translate(456,109)"/>
<path d="M0 0 C0.66 0 1.32 0 2 0 C0.25 7.625 0.25 7.625 -2 11 C-2.19622241 6.78121808 -1.80230168 3.82989106 0 0 Z " fill="#2B0000" transform="translate(389,60)"/>
<path d="M0 0 C3.63 0 7.26 0 11 0 C11 0.33 11 0.66 11 1 C7.97265625 1.24414062 7.97265625 1.24414062 4.9453125 1.48828125 C2.60480784 1.87393036 2.60480784 1.87393036 1 5 C0.67 3.35 0.34 1.7 0 0 Z " fill="#9E9E9E" transform="translate(779,127)"/>
</svg>
